<svg xmlns="http://www.w3.org/2000/svg" width="23.04" height="20.197" viewBox="0 0 23.04 20.197">
  <path id="Icon_map-food" data-name="Icon map-food" d="M23.469,7.274,21.58,22.08H15.2L13.32,7.2h7.788l1.539-5.317.873.263L22.043,7.263l1.426.011ZM12.418,15.84s.239-1.92-3.07-1.92H4.08c-3.3,0-3.07,1.92-3.07,1.92ZM1.01,20.16s-.234,1.92,3.07,1.92H9.348c3.308,0,3.07-1.92,3.07-1.92Zm10.913-.96A1.1,1.1,0,0,0,12.9,18a1.1,1.1,0,0,0-.979-1.2H1.459A1.1,1.1,0,0,0,.48,18a1.106,1.106,0,0,0,.979,1.2Z" transform="translate(-0.48 -1.883)" fill="#c6c7e0"/>
</svg>
