<svg xmlns="http://www.w3.org/2000/svg" width="38.553" height="33.941" viewBox="0 0 38.553 33.941">
  <g id="Group_4" data-name="Group 4" transform="translate(-311.03 -217.059)">
    <path id="Icon_awesome-wine-bottle" data-name="Icon awesome-wine-bottle" d="M13.609,1.947,11.788.126a.429.429,0,0,0-.607,0l-.607.607a.429.429,0,0,0,0,.607L8.517,3.4a3.431,3.431,0,0,0-3.766.73L.5,8.376A1.717,1.717,0,0,0,.5,10.8l2.428,2.428a1.717,1.717,0,0,0,2.428,0L9.608,8.983a3.431,3.431,0,0,0,.73-3.766L12.4,3.161a.429.429,0,0,0,.607,0l.607-.607a.429.429,0,0,0,0-.607Zm-8.8,9.409L2.38,8.927,5.654,5.653,8.082,8.081,4.808,11.355Z" transform="translate(330.159 238.678) rotate(-45)" fill="#c5c6e5"/>
    <path id="Icon_awesome-wine-bottle-2" data-name="Icon awesome-wine-bottle" d="M23.78,3.4,20.6.22a.75.75,0,0,0-1.061,0L18.477,1.281a.75.75,0,0,0,0,1.061L14.883,5.935A6,6,0,0,0,8.3,7.212L.879,14.636a3,3,0,0,0,0,4.243l4.243,4.243a3,3,0,0,0,4.243,0L16.789,15.7a6,6,0,0,0,1.276-6.58l3.594-3.594a.75.75,0,0,0,1.061,0l1.061-1.061a.75.75,0,0,0,0-1.06ZM8.4,19.842,4.158,15.6,9.879,9.878l4.243,4.243L8.4,19.842Z" transform="translate(311.029 234.03) rotate(-45)" fill="#c5c6e5"/>
  </g>
</svg>
