<svg xmlns="http://www.w3.org/2000/svg" width="16" height="16" viewBox="0 0 16 16">
  <path id="Icon_material-grain" data-name="Icon material-grain" d="M10,12a2,2,0,1,0,2,2A2.006,2.006,0,0,0,10,12ZM6,8a2,2,0,1,0,2,2A2.006,2.006,0,0,0,6,8Zm0,8a2,2,0,1,0,2,2A2.006,2.006,0,0,0,6,16ZM18,8a2,2,0,1,0-2-2A2.006,2.006,0,0,0,18,8Zm-4,8a2,2,0,1,0,2,2A2.006,2.006,0,0,0,14,16Zm4-4a2,2,0,1,0,2,2A2.006,2.006,0,0,0,18,12ZM14,8a2,2,0,1,0,2,2A2.006,2.006,0,0,0,14,8ZM10,4a2,2,0,1,0,2,2A2.006,2.006,0,0,0,10,4Z" transform="translate(-4 -4)" fill="#c5c6e5"/>
</svg>
