<svg xmlns="http://www.w3.org/2000/svg" width="15.956" height="23.04" viewBox="0 0 15.956 23.04">
  <path id="Icon_map-beauty-salon" data-name="Icon map-beauty-salon" d="M16.695,3.2H13.358a.448.448,0,0,0,0,.9h3.336v.459H13.358a.448.448,0,0,0,0,.9h3.336v.469H13.358a.448.448,0,0,0,0,.9h3.336V7.26H13.358a.453.453,0,0,0,0,.906h3.336v.448H13.358a.448.448,0,0,0,0,.9h3.336v.447H13.358a.448.448,0,0,0,0,.9h3.336v.458H13.358a.448.448,0,0,0,0,.9h3.336v.446H13.358a.448.448,0,0,0,0,.9h3.336v8.716a1.013,1.013,0,0,0,2.025,0V1.867A1.4,1.4,0,0,0,17.4.491H13.358a.448.448,0,0,0,0,.9l3.336.011v.446H13.358a.448.448,0,0,0,0,.9h3.336ZM13.129,18.652A2.356,2.356,0,0,0,9.6,16.514v-5.93L8.358.8A.365.365,0,0,0,7.966.48c-.152,0-.457.065-.49.324L6.24,10.584v5.93A2.318,2.318,0,0,0,2.764,18.64a2.435,2.435,0,0,0,2.463,2.472A2.5,2.5,0,0,0,7.68,18.64V12.48h.48v6.16A2.424,2.424,0,0,0,10.4,21.09a3.412,3.412,0,0,0,.687,2.249.573.573,0,0,0,.922-.659,2.12,2.12,0,0,1-.3-1.827,2.413,2.413,0,0,0,1.421-2.2Zm-7.847,1.22a1.22,1.22,0,1,1,1.212-1.22,1.22,1.22,0,0,1-1.212,1.22ZM9.4,18.652a1.212,1.212,0,1,1,1.212,1.22A1.225,1.225,0,0,1,9.4,18.652Z" transform="translate(-2.764 -0.48)" fill="#c6c7e0"/>
</svg>
